<svg width="417" height="26" viewBox="0 0 417 26" fill="none" xmlns="http://www.w3.org/2000/svg">
<path fill-rule="evenodd" clip-rule="evenodd" d="M412.661 17.559C412.554 17.882 413.475 23.346 412.846 24.004C412.064 24.821 405.322 23.868 402.901 23.82C379.921 23.365 354.338 23.026 331.265 21.978C304.862 20.779 273.503 22.431 249.132 21.978C225.183 21.533 193.611 22.609 168.84 23.083C154.518 23.358 140.519 22.774 126.301 23.636C108.284 24.727 89.1961 23.221 72.1591 24.925C55.8791 26.553 36.0152 25.44 20.0432 25.293C13.9062 25.237 1.53816 27.143 0.522156 21.242C0.142156 19.037 2.01516 18.546 2.54816 16.27C3.24216 13.304 1.72316 5.47204 4.02116 3.56304C5.95416 1.95804 18.4662 2.97304 22.6212 3.19504C52.4832 4.78804 84.4772 2.82603 116.355 2.82603C148.5 2.82603 178.868 0.985036 209.355 0.985036C280.363 0.985036 352.386 0.0720384 416.713 4.30004C414.392 9.00304 413.772 14.124 413.398 17.559C412.896 17.541 413.027 17.865 412.661 17.559Z" fill="#8B5CF6"/>
</svg>
