<svg width="408" height="29" viewBox="0 0 408 29" fill="none" xmlns="http://www.w3.org/2000/svg">
<path fill-rule="evenodd" clip-rule="evenodd" d="M403.374 22.463C383.512 23.315 359.751 22.862 337.447 22.647C299.556 22.282 258.525 22.791 218.115 23.2C155.817 23.829 94.0618 26.757 33.9588 27.067C25.5878 27.11 16.6548 28.538 8.91377 27.804C6.48877 27.573 1.14877 25.845 0.626773 24.12C-0.0472266 21.891 2.19577 20.959 2.65277 18.964C3.56777 14.963 0.577773 9.38901 3.02077 6.25701C4.70577 4.09701 17.8928 4.992 22.3578 4.968C67.5218 4.725 116.924 5.545 165.446 3.127C204.163 1.198 249.86 0.00699884 288.277 1.838C330.921 3.87 371.469 -0.273999 407.794 2.39C406.818 3.19 404.916 8.72399 405.585 10.124C405.402 11.145 404.153 10.011 403.743 10.861C405.881 11.06 404.255 11.999 405.032 13.255C404.188 13.477 403.863 14.184 402.638 13.624C402.426 14.757 404.508 13.595 404.295 14.728C404.596 15.549 403.115 16.424 402.822 16.57C404.492 17.887 402.313 19.77 403.374 22.463Z" fill="#8B5CF6"/>
</svg>
