<svg width="416" height="25" viewBox="0 0 416 25" fill="none" xmlns="http://www.w3.org/2000/svg">
<path fill-rule="evenodd" clip-rule="evenodd" d="M2.91587 2.73604C67.8399 1.55604 134.814 0.342041 205.671 0.342041C276.476 0.342041 341.416 1.76704 415.055 1.26304C414.474 4.03104 413.549 8.01303 412.661 12.312C412.315 13.995 411.743 20.624 411.189 21.336C410.32 22.451 409.716 21.461 406.032 21.52C358.819 22.286 304.884 21.779 253.92 21.336C207.178 20.929 152.599 21.195 107.148 21.889C91.3749 22.129 76.0269 23.914 58.5309 23.914C49.9869 23.914 40.6649 23.514 32.1969 23.914C24.0629 24.298 13.2679 25.579 6.59887 24.467C5.09587 24.215 0.322874 22.753 0.153874 20.6C-0.0231257 18.357 1.93487 17.786 2.17987 15.627C2.66287 11.351 0.965874 6.82804 2.91587 2.73604Z" fill="#8B5CF6"/>
</svg>
