<svg width="416" height="30" viewBox="0 0 416 30" fill="none" xmlns="http://www.w3.org/2000/svg">
<path fill-rule="evenodd" clip-rule="evenodd" d="M415.16 1.45398C412.252 5.83698 413.906 9.05498 411.109 10.478C413.301 14.003 409.032 17.237 410.004 21.895C366.809 24.022 316.346 21.271 271.704 22.816C237.986 23.983 203.91 24.665 169.681 25.947C150.57 26.662 131.207 26.543 112.041 27.604C79.8128 29.389 49.6138 27.727 19.0428 29.262C13.8888 29.52 1.70583 30.102 0.81083 25.394C0.43983 23.443 2.25283 22.679 2.83683 20.606C3.50283 18.241 1.16383 10.003 3.94183 7.53099C5.60683 6.04899 13.3418 7.08599 17.2008 6.97899C48.1788 6.11699 80.1998 7.84598 112.225 6.60998C173.976 4.22698 245.94 3.54899 311.849 1.26999C345.454 0.107988 380.323 3.03298 415.16 1.45398Z" fill="#8B5CF6"/>
</svg>
