<svg width="407" height="30" viewBox="0 0 407 30" fill="none" xmlns="http://www.w3.org/2000/svg">
<path fill-rule="evenodd" clip-rule="evenodd" d="M404.216 14.534C403.768 14.418 404.118 13.604 404.585 13.797C404.719 14.3 404.219 14.168 404.216 14.534ZM406.426 2.01102C404.289 8.41302 402.909 8.50402 403.479 13.061C402.588 13.152 402.504 14.05 401.454 13.982C403.097 14.694 402.367 16.392 400.718 16.559C402.655 18.469 400.036 19.535 401.086 21.9C323.519 21.757 247.641 23.741 163.71 23.741C117.525 23.741 71.5058 26.949 27.0658 28.345C20.5918 28.549 1.62381 31.825 0.547813 25.399C0.213814 23.408 2.17781 22.779 2.57381 20.795C3.34581 16.922 0.189813 10.375 2.94181 7.72002C4.18981 6.51602 11.3688 6.64902 14.9118 6.43102C44.7768 4.58902 69.6118 5.24601 99.2548 4.22101C130.736 3.13201 172.482 2.93203 199.804 2.93203C271.821 2.93203 338.893 -0.71798 406.426 2.01102Z" fill="#8B5CF6"/>
</svg>
