<svg width="408" height="30" viewBox="0 0 408 30" fill="none" xmlns="http://www.w3.org/2000/svg">
<path fill-rule="evenodd" clip-rule="evenodd" d="M3.17923 7.23102C85.7892 1.22702 179.707 2.34402 265.417 1.33702C286.98 1.08402 307.834 0.785018 330.055 0.785018C356.628 0.785018 386.09 -0.382982 407.769 2.25802C404.355 8.25702 403.018 12.703 400.035 20.858C343.133 22.551 288.14 22.039 228.033 22.7C200.898 22.998 171.577 23.068 145.347 23.068C99.5852 23.068 52.5492 24.22 10.3622 29.146C7.15723 29.519 0.295232 28.516 0.415626 24.542C0.472232 22.761 1.98823 21.307 2.25923 19.569C2.90423 15.431 1.36423 11.804 3.17923 7.23102Z" fill="#8B5CF6"/>
</svg>
