<svg width="410" height="29" viewBox="0 0 410 29" fill="none" xmlns="http://www.w3.org/2000/svg">
<path fill-rule="evenodd" clip-rule="evenodd" d="M405.321 13.013C405.024 13.684 406.68 13.982 406.794 14.855C405.523 15.23 405.316 15.831 406.426 16.696C404.586 16.51 405.831 17.854 405.137 17.617C404.258 17.678 405.548 18.15 406.058 17.985C404.768 19.589 405.181 19.984 405.874 21.116C367.207 21.862 322.618 20.6 274.018 21.3C228.14 21.96 186.204 25.062 140.874 24.431C97.4062 23.825 47.5092 30.033 8.65119 27.377C5.89419 27.189 0.787194 25.946 0.548194 23.326C0.391194 21.608 2.20519 20.635 2.38919 18.538C2.73119 14.651 -0.204805 8.40095 2.38919 5.83095C5.22619 3.01995 22.1352 5.09795 27.0662 5.09395C54.2242 5.07395 76.1592 5.18996 103.122 3.98896C136.349 2.50996 173.494 3.80496 206.065 2.33196C241.282 0.739958 276.514 1.28896 312.875 0.306964C338.897 -0.397036 377.783 0.514957 409.004 1.04296C407.545 4.50596 408.679 8.26595 405.69 10.066C406.94 10.321 406.916 11.639 406.978 12.645C406.455 12.783 405.718 13.317 405.321 13.013Z" fill="#8B5CF6"/>
</svg>
