<svg width="414" height="26" viewBox="0 0 414 26" fill="none" xmlns="http://www.w3.org/2000/svg">
<path preserveAspectRatio="none" fill-rule="evenodd" clip-rule="evenodd" d="M413.741 4.05698C410.605 12.775 409.283 15.382 407.664 23.946C366.905 23.869 319.973 21.142 281.149 21.92C217.636 23.193 152.55 23.467 95.3356 23.209C79.7136 23.139 68.4586 23.946 52.2436 23.946C37.3696 23.946 22.3636 26.631 9.15162 25.787C6.51162 25.619 0.700616 23.987 0.496616 21.368C0.390616 20.01 1.87562 17.329 2.15362 15.29C2.77962 10.7 0.938616 6.30698 3.62662 4.24098C6.53262 2.00798 15.4286 3.22198 19.4636 2.95198C25.4936 2.54998 32.5536 2.67798 37.6956 2.58298C96.7516 1.49898 166.532 1.96298 225.166 1.29498C287.064 0.589976 351.567 0.831976 413.741 4.05698Z" fill="#8B5CF6"/>
</svg>
