<svg width="350" height="68" viewBox="0 0 350 68" fill="none" xmlns="http://www.w3.org/2000/svg">
<path fill-rule="evenodd" clip-rule="evenodd" d="M101.897 10.843C84.3613 12.938 66.9981 15.6514 49.6597 19.2062C41.5136 20.8723 37.5352 21.8127 30.1221 23.8581C29.3725 24.0643 27.7005 24.3281 26.8933 24.5838C26.2755 24.7818 25.8802 25.0623 25.6743 25.2602C24.9082 26.0108 24.8753 26.8273 25.1636 27.5696C25.2954 27.9243 25.6166 28.584 26.6709 28.9222C31.234 30.4151 35.8713 31.6109 40.5498 32.5594C31.4564 33.112 22.6843 33.6151 13.4426 34.3987C8.91239 34.7863 2.68872 35.3968 1.9334 35.5122C0.0348277 35.7926 0.102363 37.7062 0.114718 37.8134C0.132015 37.9536 0.373355 39.6609 2.22745 39.6279C60.7217 38.7289 119.12 36.4773 177.651 36.4113C177.882 36.4113 193.573 36.4608 206.842 36.7989C201.332 37.1783 194.561 37.5659 186.514 37.9948C149.053 39.9908 111.526 40.9724 74.1229 44.0488C55.9855 45.5417 56.4221 45.5415 38.5483 47.62C28.45 48.7912 28.8948 48.5932 18.5766 50.2923C17.6665 50.4407 15.7951 50.2842 14.8124 50.4326C14.0999 50.5481 13.5843 50.812 13.2771 51.0595C12.7689 51.4801 12.5144 51.9913 12.446 52.5687C12.3875 53.0636 12.4452 53.7482 13.0786 54.4823C13.7499 55.2658 14.8561 55.9585 16.3634 56.4617C18.103 57.039 20.4686 57.4103 23.1702 57.6082C32.9802 58.334 47.5429 56.8742 50.9117 56.8412C76.0751 56.569 101.197 54.9524 126.361 54.3256C126.352 54.4658 126.352 54.5978 126.369 54.7297C126.426 55.2658 126.665 55.8845 127.324 56.4206C128.008 56.9649 130.018 57.6329 132.711 58.1442C135.215 58.6226 138.394 59.0846 141.376 59.5218C137.694 59.8517 133.864 60.2558 131.41 60.6846C130.347 60.8743 127.58 61.163 127.201 61.3115C125.949 61.8064 125.858 62.829 125.866 63.2826C125.866 63.5383 125.965 65.1714 127.967 65.3694C145.198 67.0849 162.742 65.8726 179.883 67.9841C181.012 68.1243 182.041 67.3241 182.181 66.1941C182.321 65.0642 181.522 64.0332 180.394 63.893C171.515 62.796 162.528 62.59 153.525 62.4085C154.506 61.8971 154.835 61.1134 154.909 60.5856C154.992 59.9505 154.893 59.0845 153.904 58.3339C153.418 57.9628 152.265 57.4432 150.198 56.8988C147.471 56.1812 141.533 55.4307 136.591 54.6389C138.213 54.4327 139.836 54.2431 141.467 54.0699C153.698 53.9461 168.228 53.9132 179.455 53.8719C188.556 53.8472 197.897 53.7399 199.907 53.5914C200.607 53.5419 201.002 53.3606 201.109 53.3111C201.546 53.0802 201.776 52.7831 201.916 52.5522C202.337 51.8594 202.345 51.1667 201.958 50.4657C201.892 50.3502 201.455 49.5006 200.063 49.3686C180.583 47.6036 160.716 47.8675 141.228 49.9542C138.386 49.9789 135.676 50.0201 133.164 50.0613C105.719 50.5232 78.3154 52.4204 50.8705 52.7173C47.6335 52.7503 33.944 54.1359 24.2822 53.5503C29.702 52.7008 31.0281 52.6429 39.026 51.7191C56.8257 49.6489 56.3892 49.6408 74.4606 48.1562C111.823 45.088 149.316 44.1065 186.728 42.1105C208.671 40.9393 221.331 40.0073 224.872 38.8609C226.479 38.3413 227.072 37.4093 227.228 36.8402C227.426 36.1639 227.352 35.4463 226.808 34.737C226.66 34.5473 226.404 34.275 225.96 34.0606C228.678 34.0441 231.396 34.0358 234.114 34.0276C258.132 33.9616 282.167 33.7718 306.177 33.9863C307.644 33.9945 309.11 34.0111 310.584 34.0358C322.519 34.3575 334.471 34.6544 346.414 34.8771L346.488 34.8854C351.282 34.9349 348.375 30.8109 346.62 30.7615C346.439 30.7532 345.187 30.7284 344.709 30.7119C341.299 30.6129 337.889 30.4481 334.479 30.3656C326.539 30.1759 318.574 30.0026 310.625 29.9119C250.67 28.2788 190.69 25.92 130.718 27.9325C107.696 28.7078 84.6825 29.8625 61.6854 31.2564C52.4932 30.5636 43.3915 29.2687 34.5123 26.9345C39.8991 25.4994 43.7457 24.6252 50.4917 23.2478C69.7986 19.2888 89.1468 16.3854 108.734 14.1997C155.296 9.02833 202.304 9.72949 248.808 4.18694C249.64 4.08797 250.011 3.85706 250.077 3.80757C251.032 3.18898 251.073 2.37233 251.008 1.82797C250.983 1.59703 250.728 0.112451 249.023 0.00522874C248.421 -0.0360105 244.122 0.178458 242.458 0.236192C239.262 0.351662 236.058 0.516571 232.862 0.599049C220.342 0.928963 208.094 1.4899 195.574 2.12498C148.641 4.49211 101.395 7.69233 54.3629 7.54387C53.2262 7.54387 52.3037 8.46762 52.2955 9.60583C52.2955 10.7358 53.218 11.6678 54.3464 11.6678C70.1857 11.7173 86.0416 11.3956 101.897 10.843Z" fill="#FB7185"/>
</svg>
