<svg width="666" height="41" viewBox="0 0 666 41" fill="none" xmlns="http://www.w3.org/2000/svg">
<path fill-rule="evenodd" clip-rule="evenodd" d="M220.587 3.59932C147.249 2.75499 73.6128 5.84061 2.62804 18.7972C1.36155 19.0274 0.83579 19.4803 0.732168 19.5839C0.125789 20.198 0.0604332 20.8504 0.13719 21.3877C0.183244 21.7139 0.494244 23.0917 2.19441 23.2337C3.36879 23.3296 11.7045 22.658 14.9206 22.4853C30.0609 21.6755 45.1706 20.5204 60.2725 19.1848C94.5137 16.1682 128.709 13.5585 163.004 11.1829C182.258 9.84733 201.52 8.74199 220.771 7.83626C267.082 8.3774 313.278 10.4882 358.611 12.6681C340.592 13.7773 324.036 14.9018 310.308 15.6309C287.158 16.8591 264.05 18.3097 240.947 20.221C229.076 21.1996 217.221 22.2628 205.373 23.5177C204.061 23.6597 201.071 23.8055 199.624 23.9782C199.01 24.0473 198.565 24.1586 198.366 24.2354C197.115 24.719 196.957 25.7091 196.942 26.208C196.934 26.5112 197.038 28.1653 199.149 28.4877C297.294 43.6165 399.687 26.0161 498.186 40.7228C499.341 40.8955 500.423 40.0972 500.596 38.9381C500.768 37.783 499.97 36.7007 498.811 36.528C406.043 22.6772 309.817 37.4874 216.929 26.6148C225.046 25.8281 233.167 25.1181 241.296 24.4465C264.357 22.539 287.423 21.0922 310.534 19.8641C333.792 18.6321 365.231 16.2258 398.141 14.7099C426.383 16.2834 454.611 18.0488 482.857 19.5455C494.774 20.1749 506.694 20.6969 518.607 21.3378C523.504 21.5988 536.103 22.6926 537.93 22.2857C539.35 21.9672 539.692 20.9502 539.776 20.4398C539.864 19.8871 539.811 19.2001 539.166 18.5439C538.966 18.3366 538.368 17.9068 537.14 17.5537C503.923 8.03969 449.533 8.18936 398.594 10.4882C387.637 9.87417 376.68 9.29082 365.719 8.76504C340.627 7.55612 315.259 6.34334 289.745 5.38772C361.647 3.6108 433.583 4.12125 505.539 5.40693C535.75 5.94806 617.185 9.21024 649.258 12.0925C648.867 12.4954 648.637 13.0558 648.664 13.666C648.717 14.8327 649.711 15.7384 650.882 15.6847C657.498 15.3777 661.325 14.9862 662.84 14.5832C663.785 14.3338 664.299 13.9346 664.537 13.6737C665.12 13.0442 665.228 12.3688 665.112 11.7278C665.04 11.3287 664.859 10.8912 664.445 10.4882C664.168 10.2119 663.493 9.78976 662.342 9.50192C649.734 6.3664 541.588 1.81085 505.616 1.16609C410.556 -0.530234 315.535 -0.875606 220.587 3.59932ZM511.426 16.717C492.851 14.1956 471.075 13.309 448.359 13.3666C459.93 14.0382 471.505 14.6945 483.084 15.3086C492.529 15.8113 501.977 16.2411 511.426 16.717ZM132.977 9.07593C108.606 10.872 84.2628 12.814 59.9001 14.9632C57.087 15.2088 54.2777 15.4506 51.4646 15.6885C78.4062 12.388 105.628 10.2887 132.977 9.07593Z" fill="#FB7185"/>
</svg>
