<svg width="746" height="115" viewBox="0 0 746 115" fill="none" xmlns="http://www.w3.org/2000/svg">
<path fill-rule="evenodd" clip-rule="evenodd" d="M16.7479 64.2047C11.8396 64.1223 6.93861 64.0126 2.03895 63.882C1.08168 63.8559 0.284227 64.6128 0.259058 65.5718C0.233889 66.5309 0.99064 67.3308 1.94791 67.3569C6.35842 67.4703 10.7698 67.5698 15.1786 67.6553C15.4245 67.8241 15.9186 68.0712 16.7648 68.2155C43.1342 72.5448 71.6379 69.2689 98.6054 67.4267C123.886 66.8834 149.18 65.9649 174.48 64.845C171.466 65.1336 168.452 65.4154 165.437 65.6831C164.81 65.7406 163.184 65.8949 162.961 65.9503C161.683 66.2937 161.648 67.3913 161.653 67.67C161.655 67.8094 161.755 69.3473 163.482 69.3945C182.035 69.8852 200.585 68.2317 219.054 66.7331C225.924 66.1745 232.787 65.6015 239.655 65.015C242.043 64.8049 248.257 64.5108 249.114 64.3495C250.036 64.1715 250.394 63.5887 250.532 63.138C265.432 62.2339 280.348 61.4422 295.269 60.7551C298.19 60.7529 301.107 60.7574 304.024 60.762C335.816 60.8415 367.599 61.039 399.389 60.9793C381.678 61.7952 363.923 62.6779 346.239 63.8992C342.616 64.1492 339 64.497 335.379 64.7749C333.401 64.9206 328.285 64.992 327.565 65.2246C326.492 65.581 326.322 66.4057 326.294 66.8146C326.278 67.0642 326.357 68.4545 328.16 68.7989C361.615 75.2147 395.75 76.578 429.679 78.3459C438.605 78.8091 447.528 79.307 456.448 79.8325C435.133 80.1964 413.606 79.4191 392.328 78.9012C392.135 78.7219 391.858 78.5512 391.461 78.4355C390.877 78.2591 389.071 78.0327 385.778 77.7886C385.069 77.7365 384.427 78.1203 384.115 78.7131C379.059 78.6143 374.017 78.5373 368.999 78.5036C352.564 78.3912 336.129 78.8636 319.696 78.8279L315.977 78.7863L315.202 78.7788C312.353 78.7299 308.868 78.6545 306.553 78.6048C305.217 78.5685 301.741 78.5562 301.26 78.5674C299.81 78.6145 299.562 79.9561 299.552 80.0181C299.546 80.0526 299.566 82.01 301.55 82.0596C302.878 82.0953 307.889 82.1634 314.915 82.2482C316.68 82.277 318.229 82.2988 319.152 82.3019L319.862 82.3052C342.328 82.5436 378.328 82.7933 388.522 82.286C421.685 83.0307 455.523 84.6119 488.275 81.7452C489.349 81.6465 489.82 81.3006 489.913 81.2229C490.42 80.7749 490.527 80.2665 490.507 79.8266C490.495 79.5474 490.355 78.4177 488.996 78.1572C488.04 77.9712 481.155 77.8396 478.505 77.6781C462.293 76.6888 446.079 75.7203 429.859 74.8767C400.61 73.3507 371.206 72.142 342.219 67.695C343.638 67.5764 345.057 67.4648 346.478 67.3672C364.408 66.1268 382.412 65.232 400.367 64.4107C456.126 61.8586 513.18 65.2783 568.684 60.5519C569.821 60.4572 570.33 60.1137 570.428 60.0364C570.965 59.5832 571.071 59.0539 571.05 58.607C571.037 58.3347 570.886 57.1904 569.501 56.9352C568.359 56.7233 560.127 56.5967 556.958 56.4231C544.305 55.7297 531.641 55.0287 518.975 54.6339C498.066 53.9864 477.113 53.6005 456.164 53.5074C454.377 53.1013 452.524 52.726 450.61 52.3816C464.737 52.1383 478.856 52.0128 492.97 52.0472C550.824 52.1693 608.664 53.2302 666.494 54.7151C690.445 55.3333 714.736 57.2889 738.695 56.8913C739.545 56.8757 741.425 57.051 742.351 57.0333C742.88 57.0252 743.268 56.9315 743.454 56.8598C744.224 56.5468 744.476 55.985 744.559 55.5448C744.629 55.2012 744.763 54.075 743.336 53.4413C712.649 39.8085 663.902 44.338 631.976 42.955C501.612 37.3097 371.157 40.7014 240.91 47.608C188.836 50.3665 136.893 53.1681 84.9251 57.5764C66.4831 59.1393 48.017 60.4016 29.6691 62.8755C27.2744 63.2035 22.2112 63.5359 18.9674 63.8865C18.0941 63.9841 17.334 64.0958 16.7479 64.2047ZM733.544 53.4659C703.259 43.9103 660.618 47.6724 631.827 46.4262C501.574 40.7879 371.23 44.1728 241.095 51.0725C189.057 53.8334 137.151 56.6305 85.2185 61.041C72.0076 62.157 58.783 63.1258 45.6006 64.4942C63.2052 64.5278 80.8167 64.3323 98.4534 63.9572C102.124 63.7033 105.769 63.4755 109.375 63.3012C153.674 61.141 198.072 59.043 242.468 57.989C257.154 57.2035 271.84 56.397 286.539 55.5984C314.99 53.0709 353.83 49.4916 389.562 48.882C401.852 48.6751 413.778 48.8209 424.795 49.4867C447.539 48.8656 470.263 48.5217 492.976 48.5739C550.858 48.6908 608.725 49.7603 666.588 51.2474C688.79 51.817 711.28 53.5467 733.544 53.4659ZM455.818 56.98C442.396 56.9269 428.977 56.9994 415.576 57.1983C409.612 57.2924 403.647 57.3935 397.681 57.5083C400.939 57.5066 404.197 57.4981 407.455 57.4825C422.747 57.4317 438.075 57.404 453.366 57.0608C454.126 57.0395 455.145 57.0626 456.286 57.0934L455.839 56.9883L455.818 56.98ZM538.505 58.918C531.962 58.5993 525.416 58.3084 518.868 58.1078C501.874 57.584 484.851 57.2253 467.824 57.0613C468.231 57.3239 468.448 57.5745 468.547 57.7339C468.837 58.184 468.883 58.6253 468.816 59.0249C468.776 59.2729 468.683 59.5665 468.472 59.8455C491.858 59.8291 515.271 59.863 538.505 58.918ZM432.779 53.5379C430.215 53.3122 427.589 53.1173 424.907 52.9536C411.611 53.3193 398.313 53.7685 385.029 54.2881C395.189 54.0711 405.358 53.8823 415.522 53.7282C421.272 53.6413 427.025 53.5757 432.779 53.5379Z" fill="#FB7185"/>
</svg>
