<svg width="71" height="70" viewBox="0 0 71 70" fill="none" xmlns="http://www.w3.org/2000/svg">
<path fill-rule="evenodd" clip-rule="evenodd" d="M27.8388 13.7945C27.6513 12.682 27.5101 11.5822 27.4188 10.4822C27.2813 8.83217 27.3663 7.16955 27.3176 5.51955C27.2963 4.81955 27.2126 2.99458 27.2463 2.73208C27.5526 0.444578 29.3988 0.0945352 29.9388 0.0320352C30.2001 -0.00546475 32.8826 -0.305331 33.4613 2.66967C34.1713 6.30717 34.3988 9.96962 34.1476 13.5571C34.7338 16.6071 35.7363 19.6446 37.0601 22.3946C42.3276 33.3321 52.3651 34.3946 63.2401 34.2946C64.9126 34.2696 66.3014 35.5821 66.3889 37.2446C66.4764 38.9196 65.2314 40.3696 63.5664 40.5196C57.4876 41.1071 46.7025 45.9821 42.9738 51.0571C42.1938 52.1196 41.7401 54.6822 41.1401 57.1947C40.3026 60.6822 39.3063 64.1321 38.1901 65.5821C38.0226 65.8071 35.9863 68.1072 35.3788 68.4447C33.9188 69.2447 32.7501 68.7821 32.0863 68.3571C31.4226 67.9321 30.6713 67.0946 30.3713 65.7071C30.0576 64.2571 30.3226 61.282 30.2738 60.6445C30.0963 58.332 29.6339 53.7946 28.6901 49.8946C28.1814 47.7946 27.6388 45.8571 26.7413 44.8946C23.4188 41.3321 18.1063 41.8571 13.6326 42.4446C13.1188 42.5071 12.6051 42.5821 12.0926 42.6446C10.2714 43.1821 8.33755 43.5821 6.2938 43.8196C3.20755 44.1821 2.70009 41.3446 2.67259 41.1571C2.61509 40.7446 2.40131 38.6196 4.72756 37.7696C4.98131 37.6821 6.85383 37.2696 7.57508 37.1071C8.58008 36.8821 9.59631 36.7071 10.6163 36.5446C21.1526 33.2696 26.8751 24.0695 27.8388 13.7945ZM31.4551 25.1572C35.4326 33.3822 41.4688 37.3571 48.6238 39.1571H48.6226C44.1551 41.4946 40.0913 44.4197 37.9376 47.3572C37.1201 48.4697 36.3701 50.7071 35.6938 53.2196C35.3276 50.8821 34.8326 48.3945 34.1789 46.2695C33.4351 43.8445 32.4338 41.8322 31.3163 40.6322C29.1588 38.3197 26.4513 37.0321 23.54 36.3946C27.025 33.3071 29.6676 29.4572 31.4551 25.1572Z" fill="#FB7185"/>
</svg>
