<svg width="613" height="116" viewBox="0 0 613 116" fill="none" xmlns="http://www.w3.org/2000/svg">
<path fill-rule="evenodd" clip-rule="evenodd" d="M226.947 44.9025C223.216 45.7019 219.507 46.5505 215.819 47.452C214.477 47.7797 213.657 49.1337 213.983 50.4746L214 50.5273C194.031 50.8729 174.065 51.4091 154.109 52.1411C125.281 53.1995 96.2707 54.9422 67.5416 57.6502C39.1504 60.326 31.3066 61.0142 6.88021 65.49C6.18166 65.6179 4.83409 65.6099 4.10909 65.8127C3.41967 66.0053 2.92614 66.341 2.60922 66.6696C2.20326 67.0862 1.96978 67.5658 1.87087 68.0908C1.76623 68.663 1.79739 69.362 2.28812 70.1428C3.67251 72.3345 5.91055 72.9363 8.64018 72.4741C10.9888 72.076 13.8282 70.6657 16.053 70.5046C53.0894 67.8254 90.1007 64.8545 127.141 62.229C183.845 58.21 240.378 56.3142 296.919 55.1798C356.363 55.6987 415.776 57.8473 475.088 61.4999C513.716 63.8771 552.262 67.4077 590.841 70.496C590.812 70.6659 590.807 70.8432 590.815 71.024C590.899 72.4015 592.089 73.4512 593.466 73.3673C594.862 73.2821 607.315 72.9267 609.611 72.3604C610.926 72.036 611.44 71.224 611.61 70.8762C612.074 69.9227 612.1 68.8866 611.069 67.8982C610.865 67.7085 610.484 67.3953 609.785 67.1953C609.188 67.0199 607.707 66.7981 605.016 66.594C561.809 63.28 518.653 59.1731 475.396 56.5067C456.085 55.3202 436.761 54.2887 417.423 53.4261C443.67 53.0829 469.928 52.6935 496.228 52.1244C497.36 52.1032 497.91 51.9191 498.011 51.8756C499.455 51.2518 499.555 50.1107 499.528 49.4641C499.52 49.2332 499.327 47.3283 497.208 47.061C495.967 46.9039 487.01 46.5991 483.563 46.4167C467.003 45.5253 467.39 45.6657 450.448 44.8965C413.193 43.21 375.992 42.0898 338.693 41.1852C323.822 40.8251 308.951 40.5357 294.076 40.3242C336.945 36.6692 380.699 36.8134 422.397 36.3592C443.908 36.1254 465.423 36.0255 486.934 36.3007C496.568 36.4242 506.2 36.7094 515.832 36.8811C518.825 36.9341 521.81 37.0571 524.799 37.1281C525.154 37.1361 529.792 37.1737 530.553 37.1571C532.546 37.1135 533.005 35.3388 533.023 35.2677C533.108 34.9337 533.438 32.5457 530.962 32.1776C495.197 26.8576 457.701 28.1092 421.575 27.2463C358.346 25.7357 294.949 26.0696 231.722 28.0411C203.757 28.9128 175.881 30.728 147.954 32.5341C134.006 33.4363 120.022 34.3923 106.207 36.5923C104.821 36.8133 101.68 37.0407 100.157 37.3028C99.3814 37.4366 98.8293 37.6476 98.5764 37.7916C97.4685 38.4166 97.2478 39.3358 97.2299 39.9802C97.2188 40.4632 97.3211 42.1637 99.6031 42.683C132.211 50.1126 168.4 45.3221 201.514 45.037C209.991 44.9639 218.466 44.9196 226.947 44.9025ZM254.56 44.9434C244.737 46.4458 235.011 48.2293 225.423 50.3514C249.263 50.0257 273.104 49.9712 296.955 50.18C336.303 49.3906 375.649 48.9687 415.043 48.4563C389.572 47.5226 364.093 46.8027 338.571 46.1842C310.577 45.5053 282.569 45.0796 254.56 44.9434ZM390.898 31.6584C337.9 30.8863 284.829 31.3872 231.881 33.0384C203.965 33.9088 176.148 35.7212 148.276 37.524C137.308 38.2333 126.311 38.9724 115.399 40.3405C143.59 43.809 173.631 40.2766 201.473 40.0372C219.057 39.886 236.65 39.8565 254.237 39.9414C298.957 33.1517 345.672 32.1214 390.898 31.6584Z" fill="#FB7185"/>
</svg>
