<svg width="54" height="53" viewBox="0 0 54 53" fill="none" xmlns="http://www.w3.org/2000/svg">
<g clip-path="url(#clip0_1022_6817)">
<path fill-rule="evenodd" clip-rule="evenodd" d="M6.86025 23.4418C9.22486 22.5993 11.7132 21.4794 13.6321 19.8582C15.9111 17.9325 16.8379 15.4524 17.4603 12.8419C18.2594 9.48791 18.5787 5.91512 19.5476 2.55574C19.9064 1.3082 20.5968 0.836625 20.8931 0.627343C21.6419 0.0987022 22.3988 -0.0426033 23.1109 0.0103967C23.9548 0.0715506 25.114 0.390888 25.8764 1.80558C25.9851 2.00807 26.1264 2.31657 26.2216 2.73921C26.2909 3.04906 26.3357 4.01799 26.4091 4.41752C26.5926 5.40142 26.7461 6.38535 26.8902 7.37469C27.3699 10.6675 27.6458 13.4642 29.1611 16.4893C31.2172 20.5961 33.2774 23.1089 36.0715 24.2219C38.7731 25.2982 42.0034 25.0957 46.1306 24.2518C46.5233 24.1567 46.9119 24.0751 47.2965 24.0085C49.1162 23.6905 50.8557 24.8851 51.2131 26.6979C51.5705 28.5095 50.4141 30.2747 48.6107 30.6729C48.2343 30.7558 47.8633 30.8346 47.4963 30.9067C41.9191 32.2874 35.4626 37.215 31.7105 41.5298C30.554 42.8602 28.8607 46.5797 27.1335 48.9525C25.8587 50.7028 24.4264 51.8566 23.2237 52.2643C22.4178 52.5388 21.7383 52.4967 21.1771 52.3581C20.3617 52.157 19.685 51.7153 19.1658 51.0127C18.8832 50.6281 18.6208 50.113 18.4958 49.4553C18.436 49.1386 18.4292 48.3342 18.4306 47.97C18.0786 46.7591 17.6478 45.5768 17.3339 44.3551C16.5851 41.4401 15.116 39.5946 13.3711 37.1566C11.739 34.8749 9.98596 33.4412 7.41614 32.2969C7.08184 32.2154 4.38426 31.5549 3.43162 31.1757C2.04003 30.6199 1.37682 29.689 1.13628 29.1875C0.727228 28.3368 0.685137 27.5935 0.766676 26.9738C0.887624 26.0592 1.29804 25.2765 2.02645 24.6445C2.47763 24.2518 3.15168 23.8699 4.05404 23.6837C4.7512 23.5383 6.60068 23.4541 6.86025 23.4418ZM22.6855 18.6908C22.8106 18.9694 22.9437 19.2494 23.0851 19.5321C26.0966 25.5469 29.4641 28.9049 33.5573 30.5343L33.6946 30.5873C30.9563 32.6203 28.4775 34.8925 26.583 37.071C25.803 37.9679 24.7702 39.8311 23.6545 41.7418C22.6407 38.4463 20.9828 36.117 18.8981 33.202C17.3054 30.9774 15.6366 29.3031 13.5859 27.9387C15.1772 27.122 16.6952 26.1652 18.0175 25.0482C20.219 23.1877 21.6745 21.0323 22.6855 18.6908Z" fill="#FB7185"/>
</g>
<defs>
<clipPath id="clip0_1022_6817">
<rect width="53" height="53" fill="white" transform="translate(0.111328)"/>
</clipPath>
</defs>
</svg>
